<svg version="1.1" id="Слой_2" xmlns="http://www.w3.org/2000/svg" xmlns:xlink="http://www.w3.org/1999/xlink" x="0px" y="0px"
	 viewBox="0 220 1200 315" enable-background="new 0 220 1200 315" xml:space="preserve">
<path fill="#000000"    d="M1195.2,437.5c-0.4-1.1-1.5-1.8-4.8-1.9v-2.1V432
	v-38.5l-2.9,38.5h-0.1v3.7c-0.6,0-1.3,0.1-2,0.1c-7.3,0.5-130.1,12.4-130.1,12.4l-3-7.1h-26l-32.5,9.1l-0.5-3l3.8-1l-0.8-6.8l2.5-1
	c0,0-0.7-1.3-1.7-3h37.5v-1.8H996c-0.9-1.6-1.9-3.2-2.6-4.3c-1.8-2.8-7.8-10.8-20.7-9.6S956.4,437,956.4,437l0.8,9.5h7.3v3.7h-19.9
	v-11.6c2.3-1.4,5.4-3.7,5.5-5.8c0.1-1.9-2.9-3-5.5-3.7v-3.7h-17.4l-6.3-5.9l-5.5-1.6c0,0-0.6-1.3-1.6-2.8h3.9v-0.5h-4.2
	c-1.4-1.9-3.5-3.9-6.1-3.8c-4.8,0.3-4.5,8.7-4.5,8.7l-7.1,2.1l-20.7-8.1c0,0-0.3-1.2-1-2.5h4.6v-0.8h-5.1c-1-1.4-2.6-2.8-5-2.5
	c-5,0.5-3,8.3-3,8.3l-11.1,1.5v-1.5h-9.6l-5.8-6.6h-21.2c0,0-1.8-1.8-6.8,0s-4.3,6.6-4.3,6.6v9.3h-6.1v-15.9h-7.7l0.4-6.3
	c0,0,5-2.8,3.8-6.8c-1.3-4-4.3-3.8-4.3-3.8l-5.8,0.9l-3.8,1.4c0,0-3,3-1.3,7.6c1.8,4.5,5,2.5,5,2.5v4.5h-9.1l-6.6-6.8v-10.6
	l4.6-11.1h2v-7.8h-23.6v-5.8l-4.7,1.1v4.7h-26.5v-17.7h1.5c0.7,2.9,2.1,4.8,3.8,4.8c2.4,0,4.3-4.1,4.3-9.1c0-5-1.9-9.1-4.3-9.1
	c-1.7,0-3.2,2.2-3.9,5.3h-15.8v8.1v17.7h-5.3c0-3.5-0.4-9.7-2.6-9.3c-2.2,0.4-1.9,6.2-1.5,9.3h-0.7l-16.4-35.3h2.7v-7.6
	c0,0,2.3,3,4.5,4.3c2.3,1.3,6.8,1.3,7.6,0c0.8-1.3-2.8-6.8-5.5-11.6c0,0-2.3-1.8-3-5.5s2.8-5,2.8-5l5.9,2.8v-2.3l-2.6-3.3l-0.8-4
	h-4.3l0.5,2.5h-3.3c0,0-3.8,0.8-6.1,4.8c-2.3,4-0.8,10.1-0.8,10.1h-2.3l-2,0.5l-7.4-15.8c4.3-2,10.4,0.9,10.4,0.9s-4-4.3-7.8-5.8
	c-1.7-0.7-3.5-0.6-5-0.4l-1.5-3.2c1.4-0.5,3.1-0.9,4.8-0.9c3.5,0,8.3-4.3,8.3-4.3l-19.3-0.7l-5-23.6c0,0.2,3.4,12.5,10.7,11.8
	c7.3-0.8,14.9-2.5,14.9-2.5l-8.3-33c0,0-3,1.3-4.8,1.8s-3.5,0-3.5,0v-3.5c0,0-4,0-7.3,0c-3.3,0-5.3,0-5.3,0v3.8l-1.5,8.3v1.8
	c0,0-5-0.5-15.1-0.8c-10.1-0.3-13.6,0.3-13.1,2c0.5,1.8,2.5,4.8,2.5,4.8v3.5l15.6,8.1c0,0,2.5-1.8,3.3-3.3c0.8-1.5,1-3,1-3
	s2.9,0,5.4-0.1l-3.2,24l-15.6,0.3l-2.5-2.8l-2.3,2.8l-5.2-12.1l0,0l-5.4-55.8l-1.5,15.4l-5,0.3l4.5,5l3,29.7l-2.5,18.2h-8.1
	l0.3,10.1l5,1.3l0.3,6.1h-9.1v4.5l21.9,1.3l4.5,6.6l3.3-4.3l6.1,1.3l-1.3,6.9c-0.8-0.4-1.8-0.6-2.8-0.6c-3.5,0-6.3,2.8-6.3,6.3
	c0,3.5,2.8,6.3,6.3,6.3c0.2,0,0.3,0,0.5,0l0,0h-0.5h-11.1v1h11.4l-2,10.3h-8.2v2.3h7.8l-1.3,6.8h-7.7v1.8h7.4l-0.6,3h-4.3v7.1
	l0.2,0.8h-7.3v2.5h5v5.5h2v4.3h-14.1v11.1h8.3v2.5c0,0-3.8,1-4,4.3s0.3,5.5,0.3,10.6c0,5,3.8,5.5,3.8,5.5l-7.6,5v-8.8h-3v10.8
	l-3.1,2.1h-11.1l-1.2-0.2v-2.8h-7.3v-6.1h-21.4V405h-5v12.9l-20.4-30.3c2.6-0.8,4.4-3.1,4.4-5.9c0-3.4-2.8-6.2-6.2-6.2
	c-2,0-3.7,0.9-4.8,2.3l-0.5-0.7h-11.1v-21.4c0.8,1.7,1.6,3.4,2.3,4.9c2.3,5.3,10.6,9.3,15.1,7.9c4.5-1.5,6.8-6.4,8.6-13.2
	c1.8-6.8,5.8-21.4,5.8-21.4l-4.3-10.8l-4.9-3.3c-8.4-5.8-14-15.6-14-15.6l1.7-2.5v-5.3c0,0-1.7-1.3-6.2,0.8
	c-4.5,2-10.6,1.5-10.6,1.5v-10.1L510,286l-1.5,11.9l-3.5,1.3l2,8.1l1.5,14.6c0,0-8.6,2.3-9.8,3.1s0,6.8,0,6.8s-2.5-3.3-8.1-6.1
	c-5.5-2.8-21.7,5.8-23.2,13.1c-1.7,8,11.3,13,20.4,14.4c10.3,1.5,10.1-0.3,12.6-3c1.5-1.7,4.2-5.7,6.1-8.6v35.7
	c-1.1-1-2.6-1.6-4.2-1.6c-3.4,0-6.2,2.8-6.2,6.2c0,3.4,2.8,6.2,6.2,6.2c1.6,0,3.1-0.6,4.2-1.6v4.6h5.3l-0.5,1.3H401.5l0.6-8.3l2.3-1
	l0.3-1.1l-1.3-2.1l1.3-10.7l1.3-0.3v-4.8h-15.6l-0.5,2.8h3v2.4l-12.9,41h-6.2v8.3l-4.7,10.1v17.4h4.8l5.5,13.9h-27.2v13.8l-28.2,1.3
	l-3.3-6.1l-17.4,7.1l-2.5-5.8l-4-1v-4l-5.3-0.2v-5.1h-11.9l-3.5-13.9l-42.9,2.1v-7.7h6.8v-16.1h-12.6l-0.2-3.3c0,0,3.8-2,6.1-5.8
	c2.3-3.8,0-8.6,0-8.6l-8.6-10.6l-6.7-3.8c0,0-10.7,1.3-15,8.8s2.3,15.4,2.3,15.4l3,3.3h1.8l2.3,4.5h-12.4v16.1h7.1v7.8h-13.6v-9.6
	h-1.3v9.6h-18.2l-1.5-9.6h-4v9.6h-3.5v-9.6h-3.3v9.6h-8.3v-7.1h-4.3v7.1h-5l-13.5,35.1H31v12.6H5.3v2L31,526.3h1081.5
	c0,0,24.7-32.5,34.6-43.4c9.8-10.8,31.3-30,38.6-35.6C1193,441.8,1195.7,439.1,1195.2,437.5z M395.4,416.6l-0.3,10.4l-5.2-7.1
	L395.4,416.6z M389.2,459.5l2.7-13.9h2.5l-0.5,13.9H389.2z M710.2,373.2v-17.7h7.4l2,17.7H710.2z"/>
</svg>
