<svg id="SvgjsSvg1001" width="288" height="288" xmlns="http://www.w3.org/2000/svg" version="1.1" xmlns:xlink="http://www.w3.org/1999/xlink" xmlns:svgjs="http://svgjs.com/svgjs"><defs id="SvgjsDefs1002"></defs><g id="SvgjsG1008" transform="matrix(0.9167,0,0,0.9167,11.982209796142598,11.995200000000011)"><!--?xml version="1.0" encoding="UTF-8"?--><svg xmlns="http://www.w3.org/2000/svg" xmlns:xlink="http://www.w3.org/1999/xlink" version="1.1" id="Layer_1" x="0px" y="0px" width="288" height="288" viewBox="0 0 92 92" xml:space="preserve"><path id="XMLID_1566_" d="M46.1 0c-.1 0-.1 0 0 0-.1 0-.1 0 0 0C20.6 0 0 20.6 0 46c0 25.3 20.6 46 45.9 46 25.4 0 46-20.6 46-46C92 20.7 71.4 0 46.1 0zM50 83.8V73.5c0-2.2-1.8-4-4-4s-4 1.8-4 4v10.3C24 81.9 10.1 67.7 8.2 50h10.3c2.2 0 4-1.8 4-4s-1.8-4-4-4H8.2C10.1 24.2 24 10.1 42 8.2v10.3c0 2.2 1.8 4 4 4s4-1.8 4-4V8.2c18 1.9 31.9 16 33.8 33.8H73.5c-2.2 0-4 1.8-4 4s1.8 4 4 4h10.3C81.9 67.8 68 81.9 50 83.8z" fill="#585858" class="color000 svgShape"></path><metadata><rdf:rdf xmlns:rdf="http://www.w3.org/1999/02/22-rdf-syntax-ns#" xmlns:rdfs="http://www.w3.org/2000/01/rdf-schema#" xmlns:dc="http://purl.org/dc/elements/1.1/"><rdf:description about="https://iconscout.com/legal#licenses" dc:title="crosshair" dc:description="crosshair" dc:publisher="Iconscout" dc:date="2017-09-24" dc:format="image/svg+xml" dc:language="en"><dc:creator><rdf:bag><rdf:li>Amit Jakhu</rdf:li></rdf:bag></dc:creator></rdf:description></rdf:rdf></metadata></svg></g></svg>